<svg xmlns="http://www.w3.org/2000/svg" viewBox="0 0 1800 1120" role="img" aria-labelledby="title desc">
  <title id="title">TradersApp detailed system design board</title>
  <desc id="desc">Detailed architecture board for TradersApp showing actors, runtime services, event flow, stateful systems, observability, and delivery controls.</desc>
  <defs>
    <filter id="shadow" x="-20%" y="-20%" width="140%" height="160%">
      <feDropShadow dx="0" dy="10" stdDeviation="14" flood-color="#10233d" flood-opacity="0.10"/>
    </filter>
    <marker id="arrowhead" markerWidth="10" markerHeight="8" refX="9" refY="4" orient="auto">
      <polygon points="0 0, 10 4, 0 8" fill="#3d4f66"/>
    </marker>
    <style>
      .title { font: 700 42px 'Segoe UI', Arial, sans-serif; fill: #10233d; }
      .subtitle { font: 500 18px 'Segoe UI', Arial, sans-serif; fill: #5b7394; }
      .grouplabel { font: 700 15px 'Segoe UI', Arial, sans-serif; fill: #2563eb; }
      .boxtitle { font: 700 20px 'Segoe UI', Arial, sans-serif; fill: #10233d; }
      .boxline { font: 500 15px 'Segoe UI', Arial, sans-serif; fill: #425d7b; }
      .smallheader { font: 700 18px 'Segoe UI', Arial, sans-serif; fill: #10233d; }
      .miniheader { font: 700 13px 'Segoe UI', Arial, sans-serif; fill: #10233d; }
      .arrowlabel { font: 600 13px 'Segoe UI', Arial, sans-serif; fill: #516781; }
      .legend { font: 500 14px 'Segoe UI', Arial, sans-serif; fill: #425d7b; }
      .edge { font: 700 13px 'Segoe UI', Arial, sans-serif; fill: #ffffff; }
      .kafka { font: 700 22px 'Segoe UI', Arial, sans-serif; fill: #10233d; }
      .smalldata { font: 600 13px 'Segoe UI', Arial, sans-serif; fill: #425d7b; }
    </style>
  </defs>
  <rect width="1800" height="1120" fill="#f8fbff"/>
  <line x1="0" y1="0" x2="0" y2="1120" stroke="#e9f0f6" stroke-width="1"/>
  <line x1="120" y1="0" x2="120" y2="1120" stroke="#e9f0f6" stroke-width="1"/>
  <line x1="240" y1="0" x2="240" y2="1120" stroke="#e9f0f6" stroke-width="1"/>
  <line x1="360" y1="0" x2="360" y2="1120" stroke="#e9f0f6" stroke-width="1"/>
  <line x1="480" y1="0" x2="480" y2="1120" stroke="#e9f0f6" stroke-width="1"/>
  <line x1="600" y1="0" x2="600" y2="1120" stroke="#e9f0f6" stroke-width="1"/>
  <line x1="720" y1="0" x2="720" y2="1120" stroke="#e9f0f6" stroke-width="1"/>
  <line x1="840" y1="0" x2="840" y2="1120" stroke="#e9f0f6" stroke-width="1"/>
  <line x1="960" y1="0" x2="960" y2="1120" stroke="#e9f0f6" stroke-width="1"/>
  <line x1="1080" y1="0" x2="1080" y2="1120" stroke="#e9f0f6" stroke-width="1"/>
  <line x1="1200" y1="0" x2="1200" y2="1120" stroke="#e9f0f6" stroke-width="1"/>
  <line x1="1320" y1="0" x2="1320" y2="1120" stroke="#e9f0f6" stroke-width="1"/>
  <line x1="1440" y1="0" x2="1440" y2="1120" stroke="#e9f0f6" stroke-width="1"/>
  <line x1="1560" y1="0" x2="1560" y2="1120" stroke="#e9f0f6" stroke-width="1"/>
  <line x1="1680" y1="0" x2="1680" y2="1120" stroke="#e9f0f6" stroke-width="1"/>
  <line x1="0" y1="0" x2="1800" y2="0" stroke="#e9f0f6" stroke-width="1"/>
  <line x1="0" y1="120" x2="1800" y2="120" stroke="#e9f0f6" stroke-width="1"/>
  <line x1="0" y1="240" x2="1800" y2="240" stroke="#e9f0f6" stroke-width="1"/>
  <line x1="0" y1="360" x2="1800" y2="360" stroke="#e9f0f6" stroke-width="1"/>
  <line x1="0" y1="480" x2="1800" y2="480" stroke="#e9f0f6" stroke-width="1"/>
  <line x1="0" y1="600" x2="1800" y2="600" stroke="#e9f0f6" stroke-width="1"/>
  <line x1="0" y1="720" x2="1800" y2="720" stroke="#e9f0f6" stroke-width="1"/>
  <line x1="0" y1="840" x2="1800" y2="840" stroke="#e9f0f6" stroke-width="1"/>
  <line x1="0" y1="960" x2="1800" y2="960" stroke="#e9f0f6" stroke-width="1"/>
  <line x1="0" y1="1080" x2="1800" y2="1080" stroke="#e9f0f6" stroke-width="1"/>
  <text x="70" y="74" class="title">TradersApp system design board</text>
  <text x="70" y="106" class="subtitle">Detailed bird-view of actors, runtime services, event flow, state, observability, and delivery controls</text>
  <g filter="url(#shadow)"><rect x="310" y="150" width="1145" height="340" rx="26" fill="#ffffff" stroke="#d9e2eb" stroke-width="2" fill-opacity="0.88"/></g>
  <text x="328" y="176" class="grouplabel">Live serving path</text>
  <g filter="url(#shadow)"><rect x="360" y="520" width="1230" height="250" rx="26" fill="#ffffff" stroke="#d9e2eb" stroke-width="2" fill-opacity="0.88"/></g>
  <text x="378" y="546" class="grouplabel">Learning + data loop</text>
  <g filter="url(#shadow)"><rect x="1460" y="120" width="320" height="230" rx="26" fill="#ffffff" stroke="#d9e2eb" stroke-width="2" fill-opacity="0.88"/></g>
  <text x="1478" y="146" class="grouplabel">Observability stack</text>
  <g filter="url(#shadow)"><rect x="1450" y="430" width="340" height="270" rx="26" fill="#ffffff" stroke="#d9e2eb" stroke-width="2" fill-opacity="0.88"/></g>
  <text x="1468" y="456" class="grouplabel">Delivery + secrets</text>
    <rect x="40" y="190" width="170" height="74" rx="16" fill="#dff4d7" stroke="#8abd74" stroke-width="3"/>
    <text x="56" y="220" class="boxtitle">Trader devices</text>
    <text x="56" y="246" class="boxline">web + mobile UI</text>
    <rect x="40" y="470" width="170" height="74" rx="16" fill="#dff4d7" stroke="#8abd74" stroke-width="3"/>
    <text x="56" y="500" class="boxtitle">Operators</text>
    <text x="56" y="526" class="boxline">ML + platform</text>
    <rect x="250" y="155" width="30" height="455" rx="8" fill="#111111"/>
    <text x="261" y="201" class="edge">E</text>
    <text x="261" y="233" class="edge">D</text>
    <text x="261" y="265" class="edge">G</text>
    <text x="261" y="297" class="edge">E</text>
    <text x="261" y="361" class="edge">A</text>
    <text x="261" y="393" class="edge">U</text>
    <text x="261" y="425" class="edge">T</text>
    <text x="261" y="457" class="edge">H</text>
    <rect x="340" y="190" width="210" height="82" rx="16" fill="#bfe7ff" stroke="#3a98c8" stroke-width="3"/>
    <text x="356" y="220" class="boxtitle">Frontend UI</text>
    <text x="356" y="246" class="boxline">React + Vite</text>
    <rect x="610" y="190" width="210" height="82" rx="16" fill="#bfe7ff" stroke="#3a98c8" stroke-width="3"/>
    <text x="626" y="220" class="boxtitle">BFF API</text>
    <text x="626" y="246" class="boxline">Node.js edge + auth</text>
    <rect x="890" y="190" width="240" height="82" rx="16" fill="#bfe7ff" stroke="#3a98c8" stroke-width="3"/>
    <text x="906" y="220" class="boxtitle">analysis-service</text>
    <text x="906" y="246" class="boxline">gRPC consensus seam</text>
    <rect x="1190" y="190" width="240" height="82" rx="16" fill="#bfe7ff" stroke="#3a98c8" stroke-width="3"/>
    <text x="1206" y="220" class="boxtitle">ML Engine</text>
    <text x="1206" y="246" class="boxline">inference + training</text>
    <rect x="650" y="360" width="240" height="84" rx="16" fill="#ff9f94" stroke="#d36a60" stroke-width="3"/>
    <text x="666" y="390" class="boxtitle">Redis + Feast</text>
    <text x="666" y="416" class="boxline">features + cache</text>
    <rect x="390" y="640" width="250" height="96" rx="16" fill="#bfe7ff" stroke="#3a98c8" stroke-width="3"/>
    <text x="406" y="670" class="boxtitle">Market + feedback</text>
    <text x="406" y="696" class="boxline">feeds, labels, outcomes</text>
    <text x="406" y="718" class="boxline">operator feedback</text>
    <rect x="760" y="620" width="280" height="96" rx="16" fill="#bfe7ff" stroke="#3a98c8" stroke-width="3"/>
    <text x="776" y="650" class="boxtitle">Airflow + GE</text>
    <text x="776" y="676" class="boxline">DQ gates + retrain DAGs</text>
    <rect x="1080" y="390" width="90" height="240" rx="16" fill="#ff9f94" stroke="#d36a60" stroke-width="3"/>
    <text x="1114" y="454" class="kafka">K</text>
    <text x="1114" y="488" class="kafka">A</text>
    <text x="1114" y="522" class="kafka">F</text>
    <text x="1114" y="556" class="kafka">K</text>
    <text x="1114" y="590" class="kafka">A</text>
    <text x="1101" y="608" class="smalldata">event bus</text>
    <rect x="1230" y="610" width="320" height="100" rx="16" fill="#ff9f94" stroke="#d36a60" stroke-width="3"/>
    <text x="1246" y="640" class="boxtitle">MLflow + MinIO</text>
    <text x="1246" y="666" class="boxline">registry + artifacts</text>
    <text x="1246" y="688" class="boxline">Postgres metadata</text>
    <rect x="1250" y="340" width="250" height="80" rx="16" fill="#bfe7ff" stroke="#3a98c8" stroke-width="3"/>
    <text x="1266" y="370" class="boxtitle">Runtime telemetry</text>
    <text x="1266" y="396" class="boxline">metrics + logs + traces</text>
    <rect x="1490" y="150" width="150" height="68" rx="16" fill="#bfe7ff" stroke="#3a98c8" stroke-width="3"/>
    <text x="1565.0" y="191.0" text-anchor="middle" class="smallheader">Prometheus</text>
    <rect x="1650" y="150" width="110" height="68" rx="16" fill="#bfe7ff" stroke="#3a98c8" stroke-width="3"/>
    <text x="1705.0" y="191.0" text-anchor="middle" class="smallheader">Loki</text>
    <rect x="1490" y="240" width="150" height="68" rx="16" fill="#bfe7ff" stroke="#3a98c8" stroke-width="3"/>
    <text x="1565.0" y="281.0" text-anchor="middle" class="smallheader">Jaeger</text>
    <rect x="1650" y="240" width="110" height="68" rx="16" fill="#bfe7ff" stroke="#3a98c8" stroke-width="3"/>
    <text x="1705.0" y="281.0" text-anchor="middle" class="smallheader">Grafana</text>
    <rect x="1480" y="470" width="170" height="82" rx="16" fill="#bfe7ff" stroke="#3a98c8" stroke-width="3"/>
    <text x="1496" y="500" class="boxtitle">Gitea + CI</text>
    <text x="1496" y="526" class="boxline">source + pipeline</text>
    <rect x="1660" y="470" width="120" height="82" rx="16" fill="#bfe7ff" stroke="#3a98c8" stroke-width="3"/>
    <text x="1676" y="500" class="boxtitle">Deploy</text>
    <text x="1676" y="526" class="boxline">Helm + k3s</text>
    <rect x="1660" y="580" width="120" height="82" rx="16" fill="#ff9f94" stroke="#d36a60" stroke-width="3"/>
    <text x="1676" y="610" class="boxtitle">Infisical</text>
    <text x="1676" y="636" class="boxline">secrets</text>
    <rect x="790" y="545" width="96" height="44" rx="12" fill="#ffffff" stroke="#3a98c8" stroke-width="3"/>
    <text x="838.0" y="574.0" text-anchor="middle" class="miniheader">DQ gate</text>
    <rect x="905" y="545" width="115" height="44" rx="12" fill="#ffffff" stroke="#3a98c8" stroke-width="3"/>
    <text x="962.5" y="574.0" text-anchor="middle" class="miniheader">Retrain DAG</text>
    <rect x="1260" y="540" width="110" height="44" rx="12" fill="#ffffff" stroke="#d36a60" stroke-width="3"/>
    <text x="1315.0" y="569.0" text-anchor="middle" class="miniheader">Registry</text>
    <rect x="1500" y="340" width="130" height="44" rx="12" fill="#ffffff" stroke="#3a98c8" stroke-width="3"/>
    <text x="1565.0" y="369.0" text-anchor="middle" class="miniheader">SLA + drift</text>
    <polyline points="210,227 250,227" fill="none" stroke="#3d4f66" stroke-width="3" stroke-linecap="round" stroke-linejoin="round" marker-end="url(#arrowhead)"/>
    <polyline points="210,507 250,507" fill="none" stroke="#3d4f66" stroke-width="3" stroke-linecap="round" stroke-linejoin="round" marker-end="url(#arrowhead)"/>
    <polyline points="280,227 340,227" fill="none" stroke="#3d4f66" stroke-width="3" stroke-linecap="round" stroke-linejoin="round" marker-end="url(#arrowhead)"/>
    <polyline points="550,227 610,227" fill="none" stroke="#3d4f66" stroke-width="3" stroke-linecap="round" stroke-linejoin="round" marker-end="url(#arrowhead)"/>
    <polyline points="820,227 890,227" fill="none" stroke="#3d4f66" stroke-width="3" stroke-linecap="round" stroke-linejoin="round" marker-end="url(#arrowhead)"/>
    <text x="896" y="219" class="arrowlabel">gRPC</text>
    <polyline points="1130,227 1190,227" fill="none" stroke="#3d4f66" stroke-width="3" stroke-linecap="round" stroke-linejoin="round" marker-end="url(#arrowhead)"/>
    <text x="1196" y="219" class="arrowlabel">inference</text>
    <polyline points="715,272 715,320 770,320 770,360" fill="none" stroke="#3d4f66" stroke-width="3" stroke-linecap="round" stroke-linejoin="round" marker-end="url(#arrowhead)"/>
    <text x="776" y="312" class="arrowlabel">feature reads</text>
    <polyline points="1010,272 1010,320 850,320 850,360" fill="none" stroke="#3d4f66" stroke-width="3" stroke-linecap="round" stroke-linejoin="round" marker-end="url(#arrowhead)"/>
    <polyline points="1430,227 1490,227 1490,380 1500,380" fill="none" stroke="#3d4f66" stroke-width="3" stroke-linecap="round" stroke-linejoin="round" marker-end="url(#arrowhead)"/>
    <text x="1496" y="372" class="arrowlabel">telemetry</text>
    <polyline points="1430,227 1080,227 1080,390" fill="none" stroke="#3d4f66" stroke-width="3" stroke-linecap="round" stroke-linejoin="round" marker-end="url(#arrowhead)"/>
    <text x="1086" y="219" class="arrowlabel">events</text>
    <polyline points="640,688 760,688" fill="none" stroke="#3d4f66" stroke-width="3" stroke-linecap="round" stroke-linejoin="round" marker-end="url(#arrowhead)"/>
    <text x="766" y="680" class="arrowlabel">validated data</text>
    <polyline points="520,640 520,540 1080,540" fill="none" stroke="#3d4f66" stroke-width="3" stroke-linecap="round" stroke-linejoin="round" marker-end="url(#arrowhead)"/>
    <text x="526" y="532" class="arrowlabel">market + feedback</text>
    <polyline points="1040,668 1230,668" fill="none" stroke="#3d4f66" stroke-width="3" stroke-linecap="round" stroke-linejoin="round" marker-end="url(#arrowhead)"/>
    <text x="1236" y="660" class="arrowlabel">approved runs</text>
    <polyline points="1430,272 1430,660 1230,660" fill="none" stroke="#3d4f66" stroke-width="3" stroke-linecap="round" stroke-linejoin="round" marker-end="url(#arrowhead)"/>
    <polyline points="1170,510 1170,640 1230,640" fill="none" stroke="#3d4f66" stroke-width="3" stroke-linecap="round" stroke-linejoin="round" marker-end="url(#arrowhead)"/>
    <polyline points="1375,380 1490,380 1490,218" fill="none" stroke="#3d4f66" stroke-width="3" stroke-linecap="round" stroke-linejoin="round" marker-end="url(#arrowhead)"/>
    <polyline points="1375,380 1650,380 1650,218" fill="none" stroke="#3d4f66" stroke-width="3" stroke-linecap="round" stroke-linejoin="round" marker-end="url(#arrowhead)"/>
    <polyline points="1375,380 1490,380 1490,274" fill="none" stroke="#3d4f66" stroke-width="3" stroke-linecap="round" stroke-linejoin="round" marker-end="url(#arrowhead)"/>
    <polyline points="1375,380 1650,380 1650,274" fill="none" stroke="#3d4f66" stroke-width="3" stroke-linecap="round" stroke-linejoin="round" marker-end="url(#arrowhead)"/>
    <polyline points="1650,511 1660,511" fill="none" stroke="#3d4f66" stroke-width="3" stroke-linecap="round" stroke-linejoin="round" marker-end="url(#arrowhead)"/>
    <text x="1666" y="503" class="arrowlabel">CI/CD</text>
    <polyline points="1720,580 1720,552" fill="none" stroke="#3d4f66" stroke-width="3" stroke-linecap="round" stroke-linejoin="round" marker-end="url(#arrowhead)"/>
    <text x="1726" y="544" class="arrowlabel">secrets</text>
    <polyline points="1660,511 1290,511 1290,272" fill="none" stroke="#3d4f66" stroke-width="3" stroke-linecap="round" stroke-linejoin="round" marker-end="url(#arrowhead)"/>
    <text x="1296" y="503" class="arrowlabel">release</text>
  <rect x="1490" y="760" width="290" height="220" rx="18" fill="#ffffff" stroke="#d9e2eb" stroke-width="2" stroke-dasharray="7 6"/>
  <text x="1508" y="788" class="boxtitle">Legend</text>
  <rect x="1508" y="812" width="26" height="20" rx="6" fill="#dff4d7" stroke="#8abd74" stroke-width="2"/>
  <text x="1546" y="827" class="legend">Actors / user entry</text>
  <rect x="1508" y="850" width="26" height="20" rx="6" fill="#bfe7ff" stroke="#3a98c8" stroke-width="2"/>
  <text x="1546" y="865" class="legend">Runtime services</text>
  <rect x="1508" y="888" width="26" height="20" rx="6" fill="#ff9f94" stroke="#d36a60" stroke-width="2"/>
  <text x="1546" y="903" class="legend">Stateful + control data</text>
  <rect x="1508" y="926" width="26" height="20" rx="6" fill="#111111" stroke="#111111" stroke-width="2"/>
  <text x="1546" y="941" class="legend">Edge / auth layer</text>
  <text x="1508" y="942" class="arrowlabel">Current reality: analysis-service is live;</text>
  <text x="1508" y="958" class="arrowlabel">learning and ingestion are still being</text>
  <text x="1508" y="974" class="arrowlabel">extracted behind stable contracts.</text>
</svg>
