<svg xmlns="http://www.w3.org/2000/svg" viewBox="0 0 1760 1040" role="img" aria-labelledby="title desc">
  <title id="title">TradersApp - Architecture Roadmap</title>
  <desc id="desc">Roadmap view that separates current state, stabilization work, extraction work, and eventual operating targets across the major architecture lanes.</desc>
  <defs>
    <style>
      .bg { fill: #f4f7fb; }
      .title { font: 700 36px 'Segoe UI', Arial, sans-serif; fill: #0f172a; }
      .subtitle { font: 500 16px 'Segoe UI', Arial, sans-serif; fill: #475569; }
      .hdr { font: 700 18px 'Segoe UI', Arial, sans-serif; fill: #ffffff; }
      .lane { font: 700 17px 'Segoe UI', Arial, sans-serif; fill: #0f172a; }
      .cell { font: 500 13px 'Segoe UI', Arial, sans-serif; fill: #334155; }
      .tag { font: 700 11px 'Segoe UI', Arial, sans-serif; fill: #475569; }
    </style>
  </defs>

  <rect class="bg" width="1760" height="1040"/>
  <text x="60" y="64" class="title">Architecture roadmap</text>
  <text x="60" y="94" class="subtitle">This chart is intentionally a planning view. Only the first column describes present reality.</text>

  <rect x="50" y="130" width="1660" height="840" rx="24" fill="#ffffff" stroke="#cbd5e1" stroke-width="2"/>

  <rect x="50" y="130" width="220" height="60" rx="16" fill="#1e293b"/>
  <rect x="270" y="130" width="360" height="60" rx="16" fill="#2563eb"/>
  <rect x="630" y="130" width="360" height="60" rx="16" fill="#d97706"/>
  <rect x="990" y="130" width="360" height="60" rx="16" fill="#7c3aed"/>
  <rect x="1350" y="130" width="360" height="60" rx="16" fill="#15803d"/>

  <text x="160" y="168" class="hdr" text-anchor="middle">Lane</text>
  <text x="450" y="168" class="hdr" text-anchor="middle">Today</text>
  <text x="810" y="168" class="hdr" text-anchor="middle">Stabilize</text>
  <text x="1170" y="168" class="hdr" text-anchor="middle">Extract</text>
  <text x="1530" y="168" class="hdr" text-anchor="middle">Operate</text>

  <g stroke="#cbd5e1" stroke-width="2">
    <line x1="270" y1="190" x2="270" y2="940"/>
    <line x1="630" y1="190" x2="630" y2="940"/>
    <line x1="990" y1="190" x2="990" y2="940"/>
    <line x1="1350" y1="190" x2="1350" y2="940"/>
    <line x1="50" y1="220" x2="1710" y2="220"/>
    <line x1="50" y1="364" x2="1710" y2="364"/>
    <line x1="50" y1="508" x2="1710" y2="508"/>
    <line x1="50" y1="652" x2="1710" y2="652"/>
    <line x1="50" y1="796" x2="1710" y2="796"/>
    <line x1="50" y1="940" x2="1710" y2="940"/>
  </g>

  <rect x="50" y="220" width="1660" height="144" fill="#fff7ed"/>
  <rect x="50" y="364" width="1660" height="144" fill="#eefbf3"/>
  <rect x="50" y="508" width="1660" height="144" fill="#eff6ff"/>
  <rect x="50" y="652" width="1660" height="144" fill="#f5f3ff"/>
  <rect x="50" y="796" width="1660" height="144" fill="#f8fafc"/>

  <text x="78" y="258" class="lane">Request path</text>
  <text x="78" y="278" class="tag">CURRENT</text>
  <text x="292" y="252" class="cell">BFF -> analysis-service -> HTTP /predict behind the seam.</text>
  <text x="652" y="252" class="cell">Unify SLA language around less than 200ms P95 and verify fallback policy.</text>
  <text x="1012" y="252" class="cell">Move more analysis behavior into analysis-service without breaking the contract.</text>
  <text x="1372" y="252" class="cell">Optional strict gRPC-only serving once the seam is independently hardened.</text>

  <text x="78" y="402" class="lane">Bounded contexts</text>
  <text x="78" y="422" class="tag">CURRENT</text>
  <text x="292" y="396" class="cell">Analysis extracted first. Ingestion and learning remain logical boundaries.</text>
  <text x="652" y="396" class="cell">Keep manifest, docs, and proto comments aligned before adding more deployables.</text>
  <text x="1012" y="396" class="cell">Pull ingestion and learning out in slices once ownership and contracts are stable.</text>
  <text x="1372" y="396" class="cell">One service per bounded context with clearer team ownership and lower coupling.</text>

  <text x="78" y="546" class="lane">Learning + data</text>
  <text x="78" y="566" class="tag">PARTIAL</text>
  <text x="292" y="540" class="cell">Airflow, GE, MLflow, Kafka, MinIO, and PostgreSQL exist and support the loop.</text>
  <text x="652" y="540" class="cell">Prove the live PostgreSQL, lag, and data-quality path in target environments.</text>
  <text x="1012" y="540" class="cell">Shift retraining and feedback execution behind a cleaner learning boundary.</text>
  <text x="1372" y="540" class="cell">Closed-loop promotion, rollback, and lineage with explicit approval points.</text>

  <text x="78" y="690" class="lane">Controls + observability</text>
  <text x="78" y="710" class="tag">PARTIAL</text>
  <text x="292" y="684" class="cell">Observability and policy systems exist, but maturity is uneven across environments.</text>
  <text x="652" y="684" class="cell">Verify alerts, traces, secret sync, and policy enforcement in a real cluster flow.</text>
  <text x="1012" y="684" class="cell">Attach ownership and status labels to each control-plane component.</text>
  <text x="1372" y="684" class="cell">Controls become dependable operating guardrails instead of slideware.</text>

  <text x="78" y="834" class="lane">Delivery story</text>
  <text x="78" y="854" class="tag">MIXED</text>
  <text x="292" y="828" class="cell">Public-cloud deploy path is current in docs. Self-hosted CI/CD and k3s are partial.</text>
  <text x="652" y="828" class="cell">Pick the primary path per environment and stop mixing current and target language.</text>
  <text x="1012" y="828" class="cell">Separate deployment docs into current, partial, and target views.</text>
  <text x="1372" y="828" class="cell">One validated release path per environment, with rollback and verification rehearsed.</text>
</svg>
