<svg xmlns="http://www.w3.org/2000/svg" viewBox="0 0 1700 980" role="img" aria-labelledby="title desc">
  <title id="title">TradersApp - Architecture Operating Map</title>
  <desc id="desc">Current operating map answering what, how, why, where, and who for the major architecture lanes.</desc>
  <defs>
    <style>
      .bg { fill: #f4f7fb; }
      .title { font: 700 36px 'Segoe UI', Arial, sans-serif; fill: #0f172a; }
      .subtitle { font: 500 17px 'Segoe UI', Arial, sans-serif; fill: #475569; }
      .hdr { font: 700 18px 'Segoe UI', Arial, sans-serif; fill: #ffffff; }
      .lane { font: 700 17px 'Segoe UI', Arial, sans-serif; fill: #0f172a; }
      .cell { font: 500 13px 'Segoe UI', Arial, sans-serif; fill: #334155; }
      .cell-strong { font: 700 13px 'Segoe UI', Arial, sans-serif; fill: #0f172a; }
      .tag { font: 700 11px 'Segoe UI', Arial, sans-serif; fill: #475569; }
    </style>
  </defs>

  <rect class="bg" width="1700" height="980"/>
  <text x="60" y="64" class="title">Architecture operating map</text>
  <text x="60" y="94" class="subtitle">Read this as current-state operating intent, not as a target-state promise.</text>

  <rect x="50" y="130" width="1600" height="780" rx="24" fill="#ffffff" stroke="#cbd5e1" stroke-width="2"/>

  <rect x="50" y="130" width="220" height="58" rx="16" fill="#1e293b"/>
  <rect x="270" y="130" width="270" height="58" rx="16" fill="#475569"/>
  <rect x="540" y="130" width="270" height="58" rx="16" fill="#475569"/>
  <rect x="810" y="130" width="270" height="58" rx="16" fill="#475569"/>
  <rect x="1080" y="130" width="270" height="58" rx="16" fill="#475569"/>
  <rect x="1350" y="130" width="300" height="58" rx="16" fill="#475569"/>

  <text x="160" y="167" class="hdr" text-anchor="middle">Lane</text>
  <text x="405" y="167" class="hdr" text-anchor="middle">What</text>
  <text x="675" y="167" class="hdr" text-anchor="middle">How</text>
  <text x="945" y="167" class="hdr" text-anchor="middle">Why</text>
  <text x="1215" y="167" class="hdr" text-anchor="middle">Where</text>
  <text x="1500" y="167" class="hdr" text-anchor="middle">Who</text>

  <rect x="50" y="210" width="1600" height="126" fill="#fff7ed"/>
  <rect x="50" y="336" width="1600" height="126" fill="#eefbf3"/>
  <rect x="50" y="462" width="1600" height="126" fill="#eff6ff"/>
  <rect x="50" y="588" width="1600" height="126" fill="#f5f3ff"/>
  <rect x="50" y="714" width="1600" height="126" fill="#f8fafc"/>

  <g stroke="#cbd5e1" stroke-width="2">
    <line x1="270" y1="188" x2="270" y2="840"/>
    <line x1="540" y1="188" x2="540" y2="840"/>
    <line x1="810" y1="188" x2="810" y2="840"/>
    <line x1="1080" y1="188" x2="1080" y2="840"/>
    <line x1="1350" y1="188" x2="1350" y2="840"/>
    <line x1="50" y1="210" x2="1650" y2="210"/>
    <line x1="50" y1="336" x2="1650" y2="336"/>
    <line x1="50" y1="462" x2="1650" y2="462"/>
    <line x1="50" y1="588" x2="1650" y2="588"/>
    <line x1="50" y1="714" x2="1650" y2="714"/>
    <line x1="50" y1="840" x2="1650" y2="840"/>
  </g>

  <text x="78" y="248" class="lane">Request path</text>
  <text x="78" y="268" class="tag">CURRENT</text>
  <text x="292" y="242" class="cell-strong">Frontend -> BFF -> analysis-service -> ML Engine</text>
  <text x="292" y="262" class="cell">This is the live serving path for consensus work.</text>
  <text x="562" y="242" class="cell">HTTP at the edge, gRPC on the seam, HTTP /predict behind the seam today.</text>
  <text x="832" y="242" class="cell">Keep the user-facing contract stable while extraction continues behind it.</text>
  <text x="1102" y="242" class="cell">Browser, BFF, analysis-service, ML Engine, Redis, Feast.</text>
  <text x="1372" y="242" class="cell">Trader traffic, BFF owner, analysis owner.</text>

  <text x="78" y="374" class="lane">Learning loop</text>
  <text x="78" y="394" class="tag">PARTIAL</text>
  <text x="292" y="368" class="cell-strong">Training, drift checks, DQ gates, registry, artifacts</text>
  <text x="292" y="388" class="cell">The capability exists, but validation depth differs by environment.</text>
  <text x="562" y="368" class="cell">Airflow DAGs, Great Expectations, MLflow, Kafka, MinIO, PostgreSQL.</text>
  <text x="832" y="368" class="cell">Promote models through checks instead of pushing directly from code changes.</text>
  <text x="1102" y="368" class="cell">ml-engine modules, Airflow workflows, MLOps services.</text>
  <text x="1372" y="368" class="cell">ML operator, platform owner, data-quality owner.</text>

  <text x="78" y="500" class="lane">Observability</text>
  <text x="78" y="520" class="tag">PARTIAL</text>
  <text x="292" y="494" class="cell-strong">Metrics, logs, traces, alerts, dashboards</text>
  <text x="292" y="514" class="cell">The stack is defined in-repo; live signal coverage still needs proving in every target environment.</text>
  <text x="562" y="494" class="cell">Prometheus, Grafana, Loki, Jaeger, OTEL wiring, rules, dashboards.</text>
  <text x="832" y="494" class="cell">Catch latency, drift, retrain failure, and deploy regressions early.</text>
  <text x="1102" y="494" class="cell">Across runtime services and cluster support services.</text>
  <text x="1372" y="494" class="cell">Platform operator and service owners.</text>

  <text x="78" y="626" class="lane">Delivery + secrets</text>
  <text x="78" y="646" class="tag">MIXED</text>
  <text x="292" y="620" class="cell-strong">Build, test, deploy, inject secrets</text>
  <text x="292" y="640" class="cell">The repo still carries both public-cloud and self-hosted operating stories.</text>
  <text x="562" y="620" class="cell">GitHub Actions plus Railway/Vercel current; Gitea/Woodpecker plus Helm/k3s partial.</text>
  <text x="832" y="620" class="cell">Avoid drift and make environment claims explicit instead of implied.</text>
  <text x="1102" y="620" class="cell">CI workflows, Helm charts, k8s docs, setup and deployment docs.</text>
  <text x="1372" y="620" class="cell">Developer, platform owner, release owner.</text>

  <text x="78" y="752" class="lane">Boundary reality</text>
  <text x="78" y="772" class="tag">CURRENT</text>
  <text x="292" y="746" class="cell-strong">Only analysis is physically extracted today</text>
  <text x="292" y="766" class="cell">Ingestion and learning are bounded contexts before they are separate runtimes.</text>
  <text x="562" y="746" class="cell">Keep contracts stable first; move behavior out in slices later.</text>
  <text x="832" y="746" class="cell">This lowers blast radius and stops premature service sprawl.</text>
  <text x="1102" y="746" class="cell">analysis-service live; ingestion and learning still mostly inside ml-engine.</text>
  <text x="1372" y="746" class="cell">Architecture owner, BFF owner, ML owner.</text>
</svg>
